<?xml version="1.0" encoding="UTF-8" standalone="no"?>
<!-- Created with Inkscape (http://www.inkscape.org/) -->

<svg
   xmlns:dc="http://purl.org/dc/elements/1.1/"
   xmlns:cc="http://creativecommons.org/ns#"
   xmlns:rdf="http://www.w3.org/1999/02/22-rdf-syntax-ns#"
   xmlns:svg="http://www.w3.org/2000/svg"
   xmlns="http://www.w3.org/2000/svg"
   xmlns:sodipodi="http://sodipodi.sourceforge.net/DTD/sodipodi-0.dtd"
   xmlns:inkscape="http://www.inkscape.org/namespaces/inkscape"
   width="107.0625"
   height="108.21875"
   id="svg5439"
   version="1.1"
   inkscape:version="0.48.3.1 r9886"
   sodipodi:docname="Novo documento 8">
  <defs
     id="defs5441" />
  <sodipodi:namedview
     id="base"
     pagecolor="#ffffff"
     bordercolor="#666666"
     borderopacity="1.0"
     inkscape:pageopacity="0.0"
     inkscape:pageshadow="2"
     inkscape:zoom="0.35"
     inkscape:cx="-165.03125"
     inkscape:cy="262.66907"
     inkscape:document-units="px"
     inkscape:current-layer="layer1"
     showgrid="false"
     fit-margin-bottom="0"
     fit-margin-top="0"
     fit-margin-left="0"
     fit-margin-right="0"
     inkscape:window-width="486"
     inkscape:window-height="383"
     inkscape:window-x="0"
     inkscape:window-y="24"
     inkscape:window-maximized="0" />
  <metadata
     id="metadata5444">
    <rdf:RDF>
      <cc:Work
         rdf:about="">
        <dc:format>image/svg+xml</dc:format>
        <dc:type
           rdf:resource="http://purl.org/dc/dcmitype/StillImage" />
        <dc:title></dc:title>
      </cc:Work>
    </rdf:RDF>
  </metadata>
  <g
     inkscape:label="Camada 1"
     inkscape:groupmode="layer"
     id="layer1"
     transform="translate(-515.03125,-686.8125)">
    <rect
       ry="0.00059738284"
       rx="0.9727186"
       y="707.95587"
       x="515.2309"
       height="4.1222258"
       width="19.786659"
       id="rect3259"
       style="fill:#2e7fff;fill-opacity:1;stroke:#000000;stroke-width:0.38509753;stroke-miterlimit:4;stroke-opacity:0;stroke-dasharray:none"
       inkscape:export-filename="/home/lucas/NetBeansProjects/SMRAquiraz/src/imagens/seJAB.png"
       inkscape:export-xdpi="90"
       inkscape:export-ydpi="90" />
    <rect
       style="fill:#2e7fff;fill-opacity:1;stroke:#000000;stroke-width:0.39303851;stroke-miterlimit:4;stroke-opacity:0;stroke-dasharray:none"
       id="rect3261"
       width="20.611103"
       height="4.1222258"
       x="515.2309"
       y="765.66705"
       rx="0.9727186"
       ry="0.00059738284"
       inkscape:export-filename="/home/lucas/NetBeansProjects/SMRAquiraz/src/imagens/seJAB.png"
       inkscape:export-xdpi="90"
       inkscape:export-ydpi="90" />
    <rect
       style="fill:#ff0000;fill-opacity:1;stroke:#000000;stroke-width:1.04827297;stroke-miterlimit:4;stroke-opacity:0;stroke-dasharray:none"
       id="rect3263"
       width="8.2022772"
       height="107.17784"
       x="613.38202"
       y="687.34467"
       rx="1.5917214"
       ry="0.28940389"
       inkscape:export-xdpi="90"
       inkscape:export-ydpi="90"
       inkscape:export-filename="/home/lucas/NetBeansProjects/SMRAquiraz/src/imagens/seJAB.png" />
    <rect
       style="fill:#ff0000;fill-opacity:1;stroke:#000000;stroke-width:0.30444634;stroke-miterlimit:4;stroke-opacity:0;stroke-dasharray:none"
       id="rect3265"
       width="12.366663"
       height="4.1222258"
       x="601.79755"
       y="707.95587"
       rx="0.9727186"
       ry="0.00059738284"
       inkscape:export-filename="/home/lucas/NetBeansProjects/SMRAquiraz/src/imagens/seJAB.png"
       inkscape:export-xdpi="90"
       inkscape:export-ydpi="90" />
    <rect
       ry="0.00059738284"
       rx="0.9727186"
       y="766.49146"
       x="601.79755"
       height="4.1222258"
       width="14.015554"
       id="rect3267"
       style="fill:#ff0000;fill-opacity:1;stroke:#000000;stroke-width:0.32410789;stroke-miterlimit:4;stroke-opacity:0;stroke-dasharray:none"
       inkscape:export-filename="/home/lucas/NetBeansProjects/SMRAquiraz/src/imagens/seJAB.png"
       inkscape:export-xdpi="90"
       inkscape:export-ydpi="90" />
    <path
       transform="matrix(0.82444509,0,0,0.82444509,-196.28159,615.03549)"
       sodipodi:type="arc"
       style="fill:none;stroke:#2e7fff;stroke-width:3.23099995;stroke-linecap:round;stroke-linejoin:round;stroke-miterlimit:4;stroke-opacity:1;stroke-dasharray:none;stroke-dashoffset:0"
       id="path3269"
       sodipodi:cx="911.23383"
       sodipodi:cy="114.99501"
       sodipodi:rx="23.512438"
       sodipodi:ry="22.32836"
       d="m 934.74626,114.99501 c 0,12.33161 -10.52687,22.32836 -23.51243,22.32836 -12.98557,0 -23.51244,-9.99675 -23.51244,-22.32836 0,-12.33161 10.52687,-22.328359 23.51244,-22.328359 12.98556,0 23.51243,9.996749 23.51243,22.328359 z"
       inkscape:export-filename="/home/lucas/NetBeansProjects/SMRAquiraz/src/imagens/seJAB.png"
       inkscape:export-xdpi="90"
       inkscape:export-ydpi="90" />
    <path
       transform="matrix(0.82444509,0,0,0.82444509,-168.00439,615.35134)"
       sodipodi:type="arc"
       style="fill:none;stroke:#ff0000;stroke-width:3.23099995;stroke-linecap:round;stroke-linejoin:round;stroke-miterlimit:4;stroke-opacity:1;stroke-dasharray:none;stroke-dashoffset:0"
       id="path3271"
       sodipodi:cx="911.23383"
       sodipodi:cy="114.99501"
       sodipodi:rx="23.512438"
       sodipodi:ry="22.32836"
       d="m 934.74626,114.99501 c 0,12.33161 -10.52687,22.32836 -23.51243,22.32836 -12.98557,0 -23.51244,-9.99675 -23.51244,-22.32836 0,-12.33161 10.52687,-22.328359 23.51244,-22.328359 12.98556,0 23.51243,9.996749 23.51243,22.328359 z"
       inkscape:export-filename="/home/lucas/NetBeansProjects/SMRAquiraz/src/imagens/seJAB.png"
       inkscape:export-xdpi="90"
       inkscape:export-ydpi="90" />
    <path
       transform="matrix(0.82444509,0,0,0.82444509,-196.28159,674.66625)"
       d="m 934.74626,114.99501 c 0,12.33161 -10.52687,22.32836 -23.51243,22.32836 -12.98557,0 -23.51244,-9.99675 -23.51244,-22.32836 0,-12.33161 10.52687,-22.328359 23.51244,-22.328359 12.98556,0 23.51243,9.996749 23.51243,22.328359 z"
       sodipodi:ry="22.32836"
       sodipodi:rx="23.512438"
       sodipodi:cy="114.99501"
       sodipodi:cx="911.23383"
       id="path3273"
       style="fill:none;stroke:#2e7fff;stroke-width:3.23099995;stroke-linecap:round;stroke-linejoin:round;stroke-miterlimit:4;stroke-opacity:1;stroke-dasharray:none;stroke-dashoffset:0"
       sodipodi:type="arc"
       inkscape:export-filename="/home/lucas/NetBeansProjects/SMRAquiraz/src/imagens/seJAB.png"
       inkscape:export-xdpi="90"
       inkscape:export-ydpi="90" />
    <path
       transform="matrix(0.82444509,0,0,0.82444509,-168.00439,674.98209)"
       d="m 934.74626,114.99501 c 0,12.33161 -10.52687,22.32836 -23.51243,22.32836 -12.98557,0 -23.51244,-9.99675 -23.51244,-22.32836 0,-12.33161 10.52687,-22.328359 23.51244,-22.328359 12.98556,0 23.51243,9.996749 23.51243,22.328359 z"
       sodipodi:ry="22.32836"
       sodipodi:rx="23.512438"
       sodipodi:cy="114.99501"
       sodipodi:cx="911.23383"
       id="path3275"
       style="fill:none;stroke:#ff0000;stroke-width:3.23099995;stroke-linecap:round;stroke-linejoin:round;stroke-miterlimit:4;stroke-opacity:1;stroke-dasharray:none;stroke-dashoffset:0"
       sodipodi:type="arc"
       inkscape:export-filename="/home/lucas/NetBeansProjects/SMRAquiraz/src/imagens/seJAB.png"
       inkscape:export-xdpi="90"
       inkscape:export-ydpi="90" />
    <rect
       inkscape:export-ydpi="90"
       inkscape:export-xdpi="90"
       inkscape:export-filename="/home/lucas/NetBeansProjects/SMRAquiraz/src/imagens/seJAB.png"
       style="fill:#2e7fff;fill-opacity:1;stroke:#000000;stroke-width:0.38509753;stroke-miterlimit:4;stroke-opacity:0;stroke-dasharray:none"
       id="rect3887"
       width="19.786659"
       height="4.1222258"
       x="515.2309"
       y="707.95587"
       rx="0.9727186"
       ry="0.00059738284" />
    <rect
       inkscape:export-ydpi="90"
       inkscape:export-xdpi="90"
       inkscape:export-filename="/home/lucas/NetBeansProjects/SMRAquiraz/src/imagens/seJAB.png"
       ry="0.00059738284"
       rx="0.9727186"
       y="765.66705"
       x="515.2309"
       height="4.1222258"
       width="20.611103"
       id="rect3889"
       style="fill:#2e7fff;fill-opacity:1;stroke:#000000;stroke-width:0.39303851;stroke-miterlimit:4;stroke-opacity:0;stroke-dasharray:none" />
    <rect
       inkscape:export-filename="/home/lucas/NetBeansProjects/SMRAquiraz/src/imagens/seJAB.png"
       inkscape:export-ydpi="90"
       inkscape:export-xdpi="90"
       ry="0.28940389"
       rx="1.5917214"
       y="687.34467"
       x="613.38202"
       height="107.17784"
       width="8.2022772"
       id="rect3891"
       style="fill:#ff0000;fill-opacity:1;stroke:#000000;stroke-width:1.04827297;stroke-miterlimit:4;stroke-opacity:0;stroke-dasharray:none" />
    <rect
       inkscape:export-ydpi="90"
       inkscape:export-xdpi="90"
       inkscape:export-filename="/home/lucas/NetBeansProjects/SMRAquiraz/src/imagens/seJAB.png"
       ry="0.00059738284"
       rx="0.9727186"
       y="707.95587"
       x="601.79755"
       height="4.1222258"
       width="12.366663"
       id="rect3893"
       style="fill:#ff0000;fill-opacity:1;stroke:#000000;stroke-width:0.30444634;stroke-miterlimit:4;stroke-opacity:0;stroke-dasharray:none" />
    <rect
       inkscape:export-ydpi="90"
       inkscape:export-xdpi="90"
       inkscape:export-filename="/home/lucas/NetBeansProjects/SMRAquiraz/src/imagens/seJAB.png"
       style="fill:#ff0000;fill-opacity:1;stroke:#000000;stroke-width:0.32410789;stroke-miterlimit:4;stroke-opacity:0;stroke-dasharray:none"
       id="rect3895"
       width="14.015554"
       height="4.1222258"
       x="601.79755"
       y="766.49146"
       rx="0.9727186"
       ry="0.00059738284" />
    <path
       inkscape:export-ydpi="90"
       inkscape:export-xdpi="90"
       inkscape:export-filename="/home/lucas/NetBeansProjects/SMRAquiraz/src/imagens/seJAB.png"
       d="m 934.74626,114.99501 c 0,12.33161 -10.52687,22.32836 -23.51243,22.32836 -12.98557,0 -23.51244,-9.99675 -23.51244,-22.32836 0,-12.33161 10.52687,-22.328359 23.51244,-22.328359 12.98556,0 23.51243,9.996749 23.51243,22.328359 z"
       sodipodi:ry="22.32836"
       sodipodi:rx="23.512438"
       sodipodi:cy="114.99501"
       sodipodi:cx="911.23383"
       id="path3897"
       style="fill:none;stroke:#2e7fff;stroke-width:3.23099995;stroke-linecap:round;stroke-linejoin:round;stroke-miterlimit:4;stroke-opacity:1;stroke-dasharray:none;stroke-dashoffset:0"
       sodipodi:type="arc"
       transform="matrix(0.82444509,0,0,0.82444509,-196.28159,615.03549)" />
    <path
       inkscape:export-ydpi="90"
       inkscape:export-xdpi="90"
       inkscape:export-filename="/home/lucas/NetBeansProjects/SMRAquiraz/src/imagens/seJAB.png"
       d="m 934.74626,114.99501 c 0,12.33161 -10.52687,22.32836 -23.51243,22.32836 -12.98557,0 -23.51244,-9.99675 -23.51244,-22.32836 0,-12.33161 10.52687,-22.328359 23.51244,-22.328359 12.98556,0 23.51243,9.996749 23.51243,22.328359 z"
       sodipodi:ry="22.32836"
       sodipodi:rx="23.512438"
       sodipodi:cy="114.99501"
       sodipodi:cx="911.23383"
       id="path3899"
       style="fill:none;stroke:#ff0000;stroke-width:3.23099995;stroke-linecap:round;stroke-linejoin:round;stroke-miterlimit:4;stroke-opacity:1;stroke-dasharray:none;stroke-dashoffset:0"
       sodipodi:type="arc"
       transform="matrix(0.82444509,0,0,0.82444509,-168.00439,615.35134)" />
    <path
       inkscape:export-ydpi="90"
       inkscape:export-xdpi="90"
       inkscape:export-filename="/home/lucas/NetBeansProjects/SMRAquiraz/src/imagens/seJAB.png"
       sodipodi:type="arc"
       style="fill:none;stroke:#2e7fff;stroke-width:3.23099995;stroke-linecap:round;stroke-linejoin:round;stroke-miterlimit:4;stroke-opacity:1;stroke-dasharray:none;stroke-dashoffset:0"
       id="path3901"
       sodipodi:cx="911.23383"
       sodipodi:cy="114.99501"
       sodipodi:rx="23.512438"
       sodipodi:ry="22.32836"
       d="m 934.74626,114.99501 c 0,12.33161 -10.52687,22.32836 -23.51243,22.32836 -12.98557,0 -23.51244,-9.99675 -23.51244,-22.32836 0,-12.33161 10.52687,-22.328359 23.51244,-22.328359 12.98556,0 23.51243,9.996749 23.51243,22.328359 z"
       transform="matrix(0.82444509,0,0,0.82444509,-196.28159,674.66625)" />
    <path
       inkscape:export-ydpi="90"
       inkscape:export-xdpi="90"
       inkscape:export-filename="/home/lucas/NetBeansProjects/SMRAquiraz/src/imagens/seJAB.png"
       sodipodi:type="arc"
       style="fill:none;stroke:#ff0000;stroke-width:3.23099995;stroke-linecap:round;stroke-linejoin:round;stroke-miterlimit:4;stroke-opacity:1;stroke-dasharray:none;stroke-dashoffset:0"
       id="path3903"
       sodipodi:cx="911.23383"
       sodipodi:cy="114.99501"
       sodipodi:rx="23.512438"
       sodipodi:ry="22.32836"
       d="m 934.74626,114.99501 c 0,12.33161 -10.52687,22.32836 -23.51243,22.32836 -12.98557,0 -23.51244,-9.99675 -23.51244,-22.32836 0,-12.33161 10.52687,-22.328359 23.51244,-22.328359 12.98556,0 23.51243,9.996749 23.51243,22.328359 z"
       transform="matrix(0.82444509,0,0,0.82444509,-168.00439,674.98209)" />
    <rect
       ry="0.00059738284"
       rx="0.9727186"
       y="707.95587"
       x="515.2309"
       height="4.1222258"
       width="19.786659"
       id="rect4492"
       style="fill:#2e7fff;fill-opacity:1;stroke:#000000;stroke-width:0.38509753;stroke-miterlimit:4;stroke-opacity:0;stroke-dasharray:none"
       inkscape:export-filename="/home/lucas/NetBeansProjects/SMRAquiraz/src/imagens/seJAB.png"
       inkscape:export-xdpi="90"
       inkscape:export-ydpi="90" />
    <rect
       style="fill:#2e7fff;fill-opacity:1;stroke:#000000;stroke-width:0.39303851;stroke-miterlimit:4;stroke-opacity:0;stroke-dasharray:none"
       id="rect4494"
       width="20.611103"
       height="4.1222258"
       x="515.2309"
       y="765.66705"
       rx="0.9727186"
       ry="0.00059738284"
       inkscape:export-filename="/home/lucas/NetBeansProjects/SMRAquiraz/src/imagens/seJAB.png"
       inkscape:export-xdpi="90"
       inkscape:export-ydpi="90" />
    <rect
       style="fill:#ff0000;fill-opacity:1;stroke:#000000;stroke-width:1.04827297;stroke-miterlimit:4;stroke-opacity:0;stroke-dasharray:none"
       id="rect4496"
       width="8.2022772"
       height="107.17784"
       x="613.38202"
       y="687.34467"
       rx="1.5917214"
       ry="0.28940389"
       inkscape:export-xdpi="90"
       inkscape:export-ydpi="90"
       inkscape:export-filename="/home/lucas/NetBeansProjects/SMRAquiraz/src/imagens/seJAB.png" />
    <rect
       style="fill:#ff0000;fill-opacity:1;stroke:#000000;stroke-width:0.30444634;stroke-miterlimit:4;stroke-opacity:0;stroke-dasharray:none"
       id="rect4498"
       width="12.366663"
       height="4.1222258"
       x="601.79755"
       y="707.95587"
       rx="0.9727186"
       ry="0.00059738284"
       inkscape:export-filename="/home/lucas/NetBeansProjects/SMRAquiraz/src/imagens/seJAB.png"
       inkscape:export-xdpi="90"
       inkscape:export-ydpi="90" />
    <rect
       ry="0.00059738284"
       rx="0.9727186"
       y="766.49146"
       x="601.79755"
       height="4.1222258"
       width="14.015554"
       id="rect4500"
       style="fill:#ff0000;fill-opacity:1;stroke:#000000;stroke-width:0.32410789;stroke-miterlimit:4;stroke-opacity:0;stroke-dasharray:none"
       inkscape:export-filename="/home/lucas/NetBeansProjects/SMRAquiraz/src/imagens/seJAB.png"
       inkscape:export-xdpi="90"
       inkscape:export-ydpi="90" />
    <path
       transform="matrix(0.82444509,0,0,0.82444509,-196.28159,615.03549)"
       sodipodi:type="arc"
       style="fill:none;stroke:#2e7fff;stroke-width:3.23099995;stroke-linecap:round;stroke-linejoin:round;stroke-miterlimit:4;stroke-opacity:1;stroke-dasharray:none;stroke-dashoffset:0"
       id="path4502"
       sodipodi:cx="911.23383"
       sodipodi:cy="114.99501"
       sodipodi:rx="23.512438"
       sodipodi:ry="22.32836"
       d="m 934.74626,114.99501 c 0,12.33161 -10.52687,22.32836 -23.51243,22.32836 -12.98557,0 -23.51244,-9.99675 -23.51244,-22.32836 0,-12.33161 10.52687,-22.328359 23.51244,-22.328359 12.98556,0 23.51243,9.996749 23.51243,22.328359 z"
       inkscape:export-filename="/home/lucas/NetBeansProjects/SMRAquiraz/src/imagens/seJAB.png"
       inkscape:export-xdpi="90"
       inkscape:export-ydpi="90" />
    <path
       transform="matrix(0.82444509,0,0,0.82444509,-168.00439,615.35134)"
       sodipodi:type="arc"
       style="fill:none;stroke:#ff0000;stroke-width:3.23099995;stroke-linecap:round;stroke-linejoin:round;stroke-miterlimit:4;stroke-opacity:1;stroke-dasharray:none;stroke-dashoffset:0"
       id="path4504"
       sodipodi:cx="911.23383"
       sodipodi:cy="114.99501"
       sodipodi:rx="23.512438"
       sodipodi:ry="22.32836"
       d="m 934.74626,114.99501 c 0,12.33161 -10.52687,22.32836 -23.51243,22.32836 -12.98557,0 -23.51244,-9.99675 -23.51244,-22.32836 0,-12.33161 10.52687,-22.328359 23.51244,-22.328359 12.98556,0 23.51243,9.996749 23.51243,22.328359 z"
       inkscape:export-filename="/home/lucas/NetBeansProjects/SMRAquiraz/src/imagens/seJAB.png"
       inkscape:export-xdpi="90"
       inkscape:export-ydpi="90" />
    <path
       transform="matrix(0.82444509,0,0,0.82444509,-196.28159,674.66625)"
       d="m 934.74626,114.99501 c 0,12.33161 -10.52687,22.32836 -23.51243,22.32836 -12.98557,0 -23.51244,-9.99675 -23.51244,-22.32836 0,-12.33161 10.52687,-22.328359 23.51244,-22.328359 12.98556,0 23.51243,9.996749 23.51243,22.328359 z"
       sodipodi:ry="22.32836"
       sodipodi:rx="23.512438"
       sodipodi:cy="114.99501"
       sodipodi:cx="911.23383"
       id="path4506"
       style="fill:none;stroke:#2e7fff;stroke-width:3.23099995;stroke-linecap:round;stroke-linejoin:round;stroke-miterlimit:4;stroke-opacity:1;stroke-dasharray:none;stroke-dashoffset:0"
       sodipodi:type="arc"
       inkscape:export-filename="/home/lucas/NetBeansProjects/SMRAquiraz/src/imagens/seJAB.png"
       inkscape:export-xdpi="90"
       inkscape:export-ydpi="90" />
    <path
       transform="matrix(0.82444509,0,0,0.82444509,-168.00439,674.98209)"
       d="m 934.74626,114.99501 c 0,12.33161 -10.52687,22.32836 -23.51243,22.32836 -12.98557,0 -23.51244,-9.99675 -23.51244,-22.32836 0,-12.33161 10.52687,-22.328359 23.51244,-22.328359 12.98556,0 23.51243,9.996749 23.51243,22.328359 z"
       sodipodi:ry="22.32836"
       sodipodi:rx="23.512438"
       sodipodi:cy="114.99501"
       sodipodi:cx="911.23383"
       id="path4508"
       style="fill:none;stroke:#ff0000;stroke-width:3.23099995;stroke-linecap:round;stroke-linejoin:round;stroke-miterlimit:4;stroke-opacity:1;stroke-dasharray:none;stroke-dashoffset:0"
       sodipodi:type="arc"
       inkscape:export-filename="/home/lucas/NetBeansProjects/SMRAquiraz/src/imagens/seJAB.png"
       inkscape:export-xdpi="90"
       inkscape:export-ydpi="90" />
    <rect
       inkscape:export-ydpi="90"
       inkscape:export-xdpi="90"
       inkscape:export-filename="/home/lucas/NetBeansProjects/SMRAquiraz/src/imagens/seJAB.png"
       style="fill:#2e7fff;fill-opacity:1;stroke:#000000;stroke-width:0.38509753;stroke-miterlimit:4;stroke-opacity:0;stroke-dasharray:none"
       id="rect5080"
       width="19.786659"
       height="4.1222258"
       x="515.2309"
       y="707.95587"
       rx="0.9727186"
       ry="0.00059738284" />
    <rect
       inkscape:export-ydpi="90"
       inkscape:export-xdpi="90"
       inkscape:export-filename="/home/lucas/NetBeansProjects/SMRAquiraz/src/imagens/seJAB.png"
       ry="0.00059738284"
       rx="0.9727186"
       y="765.66705"
       x="515.2309"
       height="4.1222258"
       width="20.611103"
       id="rect5082"
       style="fill:#2e7fff;fill-opacity:1;stroke:#000000;stroke-width:0.39303851;stroke-miterlimit:4;stroke-opacity:0;stroke-dasharray:none" />
    <rect
       inkscape:export-filename="/home/lucas/NetBeansProjects/SMRAquiraz/src/imagens/seJAB.png"
       inkscape:export-ydpi="90"
       inkscape:export-xdpi="90"
       ry="0.28940389"
       rx="1.5917214"
       y="687.34467"
       x="613.38202"
       height="107.17784"
       width="8.2022772"
       id="rect5084"
       style="fill:#ff0000;fill-opacity:1;stroke:#000000;stroke-width:1.04827297;stroke-miterlimit:4;stroke-opacity:0;stroke-dasharray:none" />
    <rect
       inkscape:export-ydpi="90"
       inkscape:export-xdpi="90"
       inkscape:export-filename="/home/lucas/NetBeansProjects/SMRAquiraz/src/imagens/seJAB.png"
       ry="0.00059738284"
       rx="0.9727186"
       y="707.95587"
       x="601.79755"
       height="4.1222258"
       width="12.366663"
       id="rect5086"
       style="fill:#ff0000;fill-opacity:1;stroke:#000000;stroke-width:0.30444634;stroke-miterlimit:4;stroke-opacity:0;stroke-dasharray:none" />
    <rect
       inkscape:export-ydpi="90"
       inkscape:export-xdpi="90"
       inkscape:export-filename="/home/lucas/NetBeansProjects/SMRAquiraz/src/imagens/seJAB.png"
       style="fill:#ff0000;fill-opacity:1;stroke:#000000;stroke-width:0.32410789;stroke-miterlimit:4;stroke-opacity:0;stroke-dasharray:none"
       id="rect5088"
       width="14.015554"
       height="4.1222258"
       x="601.79755"
       y="766.49146"
       rx="0.9727186"
       ry="0.00059738284" />
    <path
       inkscape:export-ydpi="90"
       inkscape:export-xdpi="90"
       inkscape:export-filename="/home/lucas/NetBeansProjects/SMRAquiraz/src/imagens/seJAB.png"
       d="m 934.74626,114.99501 c 0,12.33161 -10.52687,22.32836 -23.51243,22.32836 -12.98557,0 -23.51244,-9.99675 -23.51244,-22.32836 0,-12.33161 10.52687,-22.328359 23.51244,-22.328359 12.98556,0 23.51243,9.996749 23.51243,22.328359 z"
       sodipodi:ry="22.32836"
       sodipodi:rx="23.512438"
       sodipodi:cy="114.99501"
       sodipodi:cx="911.23383"
       id="path5090"
       style="fill:none;stroke:#2e7fff;stroke-width:3.23099995;stroke-linecap:round;stroke-linejoin:round;stroke-miterlimit:4;stroke-opacity:1;stroke-dasharray:none;stroke-dashoffset:0"
       sodipodi:type="arc"
       transform="matrix(0.82444509,0,0,0.82444509,-196.28159,615.03549)" />
    <path
       inkscape:export-ydpi="90"
       inkscape:export-xdpi="90"
       inkscape:export-filename="/home/lucas/NetBeansProjects/SMRAquiraz/src/imagens/seJAB.png"
       d="m 934.74626,114.99501 c 0,12.33161 -10.52687,22.32836 -23.51243,22.32836 -12.98557,0 -23.51244,-9.99675 -23.51244,-22.32836 0,-12.33161 10.52687,-22.328359 23.51244,-22.328359 12.98556,0 23.51243,9.996749 23.51243,22.328359 z"
       sodipodi:ry="22.32836"
       sodipodi:rx="23.512438"
       sodipodi:cy="114.99501"
       sodipodi:cx="911.23383"
       id="path5092"
       style="fill:none;stroke:#ff0000;stroke-width:3.23099995;stroke-linecap:round;stroke-linejoin:round;stroke-miterlimit:4;stroke-opacity:1;stroke-dasharray:none;stroke-dashoffset:0"
       sodipodi:type="arc"
       transform="matrix(0.82444509,0,0,0.82444509,-168.00439,615.35134)" />
    <path
       inkscape:export-ydpi="90"
       inkscape:export-xdpi="90"
       inkscape:export-filename="/home/lucas/NetBeansProjects/SMRAquiraz/src/imagens/seJAB.png"
       sodipodi:type="arc"
       style="fill:none;stroke:#2e7fff;stroke-width:3.23099995;stroke-linecap:round;stroke-linejoin:round;stroke-miterlimit:4;stroke-opacity:1;stroke-dasharray:none;stroke-dashoffset:0"
       id="path5094"
       sodipodi:cx="911.23383"
       sodipodi:cy="114.99501"
       sodipodi:rx="23.512438"
       sodipodi:ry="22.32836"
       d="m 934.74626,114.99501 c 0,12.33161 -10.52687,22.32836 -23.51243,22.32836 -12.98557,0 -23.51244,-9.99675 -23.51244,-22.32836 0,-12.33161 10.52687,-22.328359 23.51244,-22.328359 12.98556,0 23.51243,9.996749 23.51243,22.328359 z"
       transform="matrix(0.82444509,0,0,0.82444509,-196.28159,674.66625)" />
    <path
       inkscape:export-ydpi="90"
       inkscape:export-xdpi="90"
       inkscape:export-filename="/home/lucas/NetBeansProjects/SMRAquiraz/src/imagens/seJAB.png"
       sodipodi:type="arc"
       style="fill:none;stroke:#ff0000;stroke-width:3.23099995;stroke-linecap:round;stroke-linejoin:round;stroke-miterlimit:4;stroke-opacity:1;stroke-dasharray:none;stroke-dashoffset:0"
       id="path5096"
       sodipodi:cx="911.23383"
       sodipodi:cy="114.99501"
       sodipodi:rx="23.512438"
       sodipodi:ry="22.32836"
       d="m 934.74626,114.99501 c 0,12.33161 -10.52687,22.32836 -23.51243,22.32836 -12.98557,0 -23.51244,-9.99675 -23.51244,-22.32836 0,-12.33161 10.52687,-22.328359 23.51244,-22.328359 12.98556,0 23.51243,9.996749 23.51243,22.328359 z"
       transform="matrix(0.82444509,0,0,0.82444509,-168.00439,674.98209)" />
    <rect
       ry="0.00059738284"
       rx="0.9727186"
       y="707.95587"
       x="515.2309"
       height="4.1222258"
       width="19.786659"
       id="rect7064"
       style="fill:#2e7fff;fill-opacity:1;stroke:#000000;stroke-width:0.38509753;stroke-miterlimit:4;stroke-opacity:0;stroke-dasharray:none"
       inkscape:export-filename="/home/lucas/NetBeansProjects/SMRAquiraz/src/imagens/seJAB.png"
       inkscape:export-xdpi="90"
       inkscape:export-ydpi="90" />
    <rect
       style="fill:#2e7fff;fill-opacity:1;stroke:#000000;stroke-width:0.39303851;stroke-miterlimit:4;stroke-opacity:0;stroke-dasharray:none"
       id="rect7066"
       width="20.611103"
       height="4.1222258"
       x="515.2309"
       y="765.66705"
       rx="0.9727186"
       ry="0.00059738284"
       inkscape:export-filename="/home/lucas/NetBeansProjects/SMRAquiraz/src/imagens/seJAB.png"
       inkscape:export-xdpi="90"
       inkscape:export-ydpi="90" />
    <rect
       style="fill:#ff0000;fill-opacity:1;stroke:#000000;stroke-width:1.04827297;stroke-miterlimit:4;stroke-opacity:0;stroke-dasharray:none"
       id="rect7068"
       width="8.2022772"
       height="107.17784"
       x="613.38202"
       y="687.34467"
       rx="1.5917214"
       ry="0.28940389"
       inkscape:export-xdpi="90"
       inkscape:export-ydpi="90"
       inkscape:export-filename="/home/lucas/NetBeansProjects/SMRAquiraz/src/imagens/seJAB.png" />
    <rect
       style="fill:#ff0000;fill-opacity:1;stroke:#000000;stroke-width:0.30444634;stroke-miterlimit:4;stroke-opacity:0;stroke-dasharray:none"
       id="rect7070"
       width="12.366663"
       height="4.1222258"
       x="601.79755"
       y="707.95587"
       rx="0.9727186"
       ry="0.00059738284"
       inkscape:export-filename="/home/lucas/NetBeansProjects/SMRAquiraz/src/imagens/seJAB.png"
       inkscape:export-xdpi="90"
       inkscape:export-ydpi="90" />
    <rect
       ry="0.00059738284"
       rx="0.9727186"
       y="766.49146"
       x="601.79755"
       height="4.1222258"
       width="14.015554"
       id="rect7072"
       style="fill:#ff0000;fill-opacity:1;stroke:#000000;stroke-width:0.32410789;stroke-miterlimit:4;stroke-opacity:0;stroke-dasharray:none"
       inkscape:export-filename="/home/lucas/NetBeansProjects/SMRAquiraz/src/imagens/seJAB.png"
       inkscape:export-xdpi="90"
       inkscape:export-ydpi="90" />
    <path
       transform="matrix(0.82444509,0,0,0.82444509,-196.28159,615.03549)"
       sodipodi:type="arc"
       style="fill:none;stroke:#2e7fff;stroke-width:3.23099995;stroke-linecap:round;stroke-linejoin:round;stroke-miterlimit:4;stroke-opacity:1;stroke-dasharray:none;stroke-dashoffset:0"
       id="path7074"
       sodipodi:cx="911.23383"
       sodipodi:cy="114.99501"
       sodipodi:rx="23.512438"
       sodipodi:ry="22.32836"
       d="m 934.74626,114.99501 c 0,12.33161 -10.52687,22.32836 -23.51243,22.32836 -12.98557,0 -23.51244,-9.99675 -23.51244,-22.32836 0,-12.33161 10.52687,-22.328359 23.51244,-22.328359 12.98556,0 23.51243,9.996749 23.51243,22.328359 z"
       inkscape:export-filename="/home/lucas/NetBeansProjects/SMRAquiraz/src/imagens/seJAB.png"
       inkscape:export-xdpi="90"
       inkscape:export-ydpi="90" />
    <path
       transform="matrix(0.82444509,0,0,0.82444509,-168.00439,615.35134)"
       sodipodi:type="arc"
       style="fill:none;stroke:#ff0000;stroke-width:3.23099995;stroke-linecap:round;stroke-linejoin:round;stroke-miterlimit:4;stroke-opacity:1;stroke-dasharray:none;stroke-dashoffset:0"
       id="path7076"
       sodipodi:cx="911.23383"
       sodipodi:cy="114.99501"
       sodipodi:rx="23.512438"
       sodipodi:ry="22.32836"
       d="m 934.74626,114.99501 c 0,12.33161 -10.52687,22.32836 -23.51243,22.32836 -12.98557,0 -23.51244,-9.99675 -23.51244,-22.32836 0,-12.33161 10.52687,-22.328359 23.51244,-22.328359 12.98556,0 23.51243,9.996749 23.51243,22.328359 z"
       inkscape:export-filename="/home/lucas/NetBeansProjects/SMRAquiraz/src/imagens/seJAB.png"
       inkscape:export-xdpi="90"
       inkscape:export-ydpi="90" />
    <path
       transform="matrix(0.82444509,0,0,0.82444509,-196.28159,674.66625)"
       d="m 934.74626,114.99501 c 0,12.33161 -10.52687,22.32836 -23.51243,22.32836 -12.98557,0 -23.51244,-9.99675 -23.51244,-22.32836 0,-12.33161 10.52687,-22.328359 23.51244,-22.328359 12.98556,0 23.51243,9.996749 23.51243,22.328359 z"
       sodipodi:ry="22.32836"
       sodipodi:rx="23.512438"
       sodipodi:cy="114.99501"
       sodipodi:cx="911.23383"
       id="path7078"
       style="fill:none;stroke:#2e7fff;stroke-width:3.23099995;stroke-linecap:round;stroke-linejoin:round;stroke-miterlimit:4;stroke-opacity:1;stroke-dasharray:none;stroke-dashoffset:0"
       sodipodi:type="arc"
       inkscape:export-filename="/home/lucas/NetBeansProjects/SMRAquiraz/src/imagens/seJAB.png"
       inkscape:export-xdpi="90"
       inkscape:export-ydpi="90" />
    <path
       transform="matrix(0.82444509,0,0,0.82444509,-168.00439,674.98209)"
       d="m 934.74626,114.99501 c 0,12.33161 -10.52687,22.32836 -23.51243,22.32836 -12.98557,0 -23.51244,-9.99675 -23.51244,-22.32836 0,-12.33161 10.52687,-22.328359 23.51244,-22.328359 12.98556,0 23.51243,9.996749 23.51243,22.328359 z"
       sodipodi:ry="22.32836"
       sodipodi:rx="23.512438"
       sodipodi:cy="114.99501"
       sodipodi:cx="911.23383"
       id="path7080"
       style="fill:none;stroke:#ff0000;stroke-width:3.23099995;stroke-linecap:round;stroke-linejoin:round;stroke-miterlimit:4;stroke-opacity:1;stroke-dasharray:none;stroke-dashoffset:0"
       sodipodi:type="arc"
       inkscape:export-filename="/home/lucas/NetBeansProjects/SMRAquiraz/src/imagens/seJAB.png"
       inkscape:export-xdpi="90"
       inkscape:export-ydpi="90" />
    <rect
       ry="0.00059738284"
       rx="0.9727186"
       y="707.95587"
       x="515.2309"
       height="4.1222258"
       width="19.786659"
       id="rect5668"
       style="fill:#2e7fff;fill-opacity:1;stroke:#000000;stroke-width:0.38509753;stroke-miterlimit:4;stroke-opacity:0;stroke-dasharray:none"
       inkscape:export-filename="/home/lucas/NetBeansProjects/SMRAquiraz/src/imagens/seJAB.png"
       inkscape:export-xdpi="90"
       inkscape:export-ydpi="90" />
    <rect
       style="fill:#2e7fff;fill-opacity:1;stroke:#000000;stroke-width:0.39303851;stroke-miterlimit:4;stroke-opacity:0;stroke-dasharray:none"
       id="rect5670"
       width="20.611103"
       height="4.1222258"
       x="515.2309"
       y="765.66705"
       rx="0.9727186"
       ry="0.00059738284"
       inkscape:export-filename="/home/lucas/NetBeansProjects/SMRAquiraz/src/imagens/seJAB.png"
       inkscape:export-xdpi="90"
       inkscape:export-ydpi="90" />
    <rect
       style="fill:#ff0000;fill-opacity:1;stroke:#000000;stroke-width:1.04827297;stroke-miterlimit:4;stroke-opacity:0;stroke-dasharray:none"
       id="rect5672"
       width="8.2022772"
       height="107.17784"
       x="613.38202"
       y="687.34467"
       rx="1.5917214"
       ry="0.28940389"
       inkscape:export-xdpi="90"
       inkscape:export-ydpi="90"
       inkscape:export-filename="/home/lucas/NetBeansProjects/SMRAquiraz/src/imagens/seJAB.png" />
    <rect
       style="fill:#ff0000;fill-opacity:1;stroke:#000000;stroke-width:0.30444634;stroke-miterlimit:4;stroke-opacity:0;stroke-dasharray:none"
       id="rect5674"
       width="12.366663"
       height="4.1222258"
       x="601.79755"
       y="707.95587"
       rx="0.9727186"
       ry="0.00059738284"
       inkscape:export-filename="/home/lucas/NetBeansProjects/SMRAquiraz/src/imagens/seJAB.png"
       inkscape:export-xdpi="90"
       inkscape:export-ydpi="90" />
    <rect
       ry="0.00059738284"
       rx="0.9727186"
       y="766.49146"
       x="601.79755"
       height="4.1222258"
       width="14.015554"
       id="rect5676"
       style="fill:#ff0000;fill-opacity:1;stroke:#000000;stroke-width:0.32410789;stroke-miterlimit:4;stroke-opacity:0;stroke-dasharray:none"
       inkscape:export-filename="/home/lucas/NetBeansProjects/SMRAquiraz/src/imagens/seJAB.png"
       inkscape:export-xdpi="90"
       inkscape:export-ydpi="90" />
    <path
       transform="matrix(0.82444509,0,0,0.82444509,-196.28159,615.03549)"
       sodipodi:type="arc"
       style="fill:none;stroke:#2e7fff;stroke-width:3.23099995;stroke-linecap:round;stroke-linejoin:round;stroke-miterlimit:4;stroke-opacity:1;stroke-dasharray:none;stroke-dashoffset:0"
       id="path5678"
       sodipodi:cx="911.23383"
       sodipodi:cy="114.99501"
       sodipodi:rx="23.512438"
       sodipodi:ry="22.32836"
       d="m 934.74626,114.99501 c 0,12.33161 -10.52687,22.32836 -23.51243,22.32836 -12.98557,0 -23.51244,-9.99675 -23.51244,-22.32836 0,-12.33161 10.52687,-22.328359 23.51244,-22.328359 12.98556,0 23.51243,9.996749 23.51243,22.328359 z"
       inkscape:export-filename="/home/lucas/NetBeansProjects/SMRAquiraz/src/imagens/seJAB.png"
       inkscape:export-xdpi="90"
       inkscape:export-ydpi="90" />
    <path
       transform="matrix(0.82444509,0,0,0.82444509,-168.00439,615.35134)"
       sodipodi:type="arc"
       style="fill:none;stroke:#ff0000;stroke-width:3.23099995;stroke-linecap:round;stroke-linejoin:round;stroke-miterlimit:4;stroke-opacity:1;stroke-dasharray:none;stroke-dashoffset:0"
       id="path5680"
       sodipodi:cx="911.23383"
       sodipodi:cy="114.99501"
       sodipodi:rx="23.512438"
       sodipodi:ry="22.32836"
       d="m 934.74626,114.99501 c 0,12.33161 -10.52687,22.32836 -23.51243,22.32836 -12.98557,0 -23.51244,-9.99675 -23.51244,-22.32836 0,-12.33161 10.52687,-22.328359 23.51244,-22.328359 12.98556,0 23.51243,9.996749 23.51243,22.328359 z"
       inkscape:export-filename="/home/lucas/NetBeansProjects/SMRAquiraz/src/imagens/seJAB.png"
       inkscape:export-xdpi="90"
       inkscape:export-ydpi="90" />
    <path
       transform="matrix(0.82444509,0,0,0.82444509,-196.28159,674.66625)"
       d="m 934.74626,114.99501 c 0,12.33161 -10.52687,22.32836 -23.51243,22.32836 -12.98557,0 -23.51244,-9.99675 -23.51244,-22.32836 0,-12.33161 10.52687,-22.328359 23.51244,-22.328359 12.98556,0 23.51243,9.996749 23.51243,22.328359 z"
       sodipodi:ry="22.32836"
       sodipodi:rx="23.512438"
       sodipodi:cy="114.99501"
       sodipodi:cx="911.23383"
       id="path5682"
       style="fill:none;stroke:#2e7fff;stroke-width:3.23099995;stroke-linecap:round;stroke-linejoin:round;stroke-miterlimit:4;stroke-opacity:1;stroke-dasharray:none;stroke-dashoffset:0"
       sodipodi:type="arc"
       inkscape:export-filename="/home/lucas/NetBeansProjects/SMRAquiraz/src/imagens/seJAB.png"
       inkscape:export-xdpi="90"
       inkscape:export-ydpi="90" />
    <path
       transform="matrix(0.82444509,0,0,0.82444509,-168.00439,674.98209)"
       d="m 934.74626,114.99501 c 0,12.33161 -10.52687,22.32836 -23.51243,22.32836 -12.98557,0 -23.51244,-9.99675 -23.51244,-22.32836 0,-12.33161 10.52687,-22.328359 23.51244,-22.328359 12.98556,0 23.51243,9.996749 23.51243,22.328359 z"
       sodipodi:ry="22.32836"
       sodipodi:rx="23.512438"
       sodipodi:cy="114.99501"
       sodipodi:cx="911.23383"
       id="path5684"
       style="fill:none;stroke:#ff0000;stroke-width:3.23099995;stroke-linecap:round;stroke-linejoin:round;stroke-miterlimit:4;stroke-opacity:1;stroke-dasharray:none;stroke-dashoffset:0"
       sodipodi:type="arc"
       inkscape:export-filename="/home/lucas/NetBeansProjects/SMRAquiraz/src/imagens/seJAB.png"
       inkscape:export-xdpi="90"
       inkscape:export-ydpi="90" />
  </g>
</svg>
