<?xml version="1.0" encoding="UTF-8" standalone="no"?>
<!-- Created with Inkscape (http://www.inkscape.org/) -->

<svg
   xmlns:dc="http://purl.org/dc/elements/1.1/"
   xmlns:cc="http://creativecommons.org/ns#"
   xmlns:rdf="http://www.w3.org/1999/02/22-rdf-syntax-ns#"
   xmlns:svg="http://www.w3.org/2000/svg"
   xmlns="http://www.w3.org/2000/svg"
   xmlns:sodipodi="http://sodipodi.sourceforge.net/DTD/sodipodi-0.dtd"
   xmlns:inkscape="http://www.inkscape.org/namespaces/inkscape"
   width="98.65625"
   height="137.15625"
   id="svg5235"
   version="1.1"
   inkscape:version="0.48.3.1 r9886"
   sodipodi:docname="Novo documento 5">
  <defs
     id="defs5237" />
  <sodipodi:namedview
     id="base"
     pagecolor="#ffffff"
     bordercolor="#666666"
     borderopacity="1.0"
     inkscape:pageopacity="0.0"
     inkscape:pageshadow="2"
     inkscape:zoom="0.35"
     inkscape:cx="110.75"
     inkscape:cy="42.856567"
     inkscape:document-units="px"
     inkscape:current-layer="layer1"
     showgrid="false"
     fit-margin-top="0"
     fit-margin-left="0"
     fit-margin-right="0"
     fit-margin-bottom="0"
     inkscape:window-width="486"
     inkscape:window-height="383"
     inkscape:window-x="0"
     inkscape:window-y="24"
     inkscape:window-maximized="0" />
  <metadata
     id="metadata5240">
    <rdf:RDF>
      <cc:Work
         rdf:about="">
        <dc:format>image/svg+xml</dc:format>
        <dc:type
           rdf:resource="http://purl.org/dc/dcmitype/StillImage" />
        <dc:title></dc:title>
      </cc:Work>
    </rdf:RDF>
  </metadata>
  <g
     inkscape:label="Camada 1"
     inkscape:groupmode="layer"
     id="layer1"
     transform="translate(-239.25,-438.0625)">
    <path
       transform="matrix(0.82444509,0,0,0.82444509,-474.11465,374.56644)"
       d="m 934.74626,114.99501 c 0,12.33161 -10.52687,22.32836 -23.51243,22.32836 -12.98557,0 -23.51244,-9.99675 -23.51244,-22.32836 0,-12.33161 10.52687,-22.328359 23.51244,-22.328359 12.98556,0 23.51243,9.996749 23.51243,22.328359 z"
       sodipodi:ry="22.32836"
       sodipodi:rx="23.512438"
       sodipodi:cy="114.99501"
       sodipodi:cx="911.23383"
       id="path3241"
       style="fill:none;stroke:#ff0000;stroke-width:3.23099995;stroke-linecap:round;stroke-linejoin:round;stroke-miterlimit:4;stroke-opacity:1;stroke-dasharray:none;stroke-dashoffset:0"
       sodipodi:type="arc"
       inkscape:export-filename="/home/lucas/NetBeansProjects/SMRAquiraz/src/imagens/seAQZ.png"
       inkscape:export-xdpi="90"
       inkscape:export-ydpi="90" />
    <path
       transform="matrix(0.82444509,0,0,0.82444509,-445.83735,374.88229)"
       d="m 934.74626,114.99501 c 0,12.33161 -10.52687,22.32836 -23.51243,22.32836 -12.98557,0 -23.51244,-9.99675 -23.51244,-22.32836 0,-12.33161 10.52687,-22.328359 23.51244,-22.328359 12.98556,0 23.51243,9.996749 23.51243,22.328359 z"
       sodipodi:ry="22.32836"
       sodipodi:rx="23.512438"
       sodipodi:cy="114.99501"
       sodipodi:cx="911.23383"
       id="path3243"
       style="fill:none;stroke:#2e7fff;stroke-width:3.23099995;stroke-linecap:round;stroke-linejoin:round;stroke-miterlimit:4;stroke-opacity:1;stroke-dasharray:none;stroke-dashoffset:0"
       sodipodi:type="arc"
       inkscape:export-filename="/home/lucas/NetBeansProjects/SMRAquiraz/src/imagens/seAQZ.png"
       inkscape:export-xdpi="90"
       inkscape:export-ydpi="90" />
    <path
       transform="matrix(0.82444509,0,0,0.82444509,-474.11465,448.76652)"
       sodipodi:type="arc"
       style="fill:none;stroke:#ff0000;stroke-width:3.23099995;stroke-linecap:round;stroke-linejoin:round;stroke-miterlimit:4;stroke-opacity:1;stroke-dasharray:none;stroke-dashoffset:0"
       id="path3245"
       sodipodi:cx="911.23383"
       sodipodi:cy="114.99501"
       sodipodi:rx="23.512438"
       sodipodi:ry="22.32836"
       d="m 934.74626,114.99501 c 0,12.33161 -10.52687,22.32836 -23.51243,22.32836 -12.98557,0 -23.51244,-9.99675 -23.51244,-22.32836 0,-12.33161 10.52687,-22.328359 23.51244,-22.328359 12.98556,0 23.51243,9.996749 23.51243,22.328359 z"
       inkscape:export-filename="/home/lucas/NetBeansProjects/SMRAquiraz/src/imagens/seAQZ.png"
       inkscape:export-xdpi="90"
       inkscape:export-ydpi="90" />
    <path
       transform="matrix(0.82444509,0,0,0.82444509,-445.83735,449.08236)"
       sodipodi:type="arc"
       style="fill:none;stroke:#2e7fff;stroke-width:3.23099995;stroke-linecap:round;stroke-linejoin:round;stroke-miterlimit:4;stroke-opacity:1;stroke-dasharray:none;stroke-dashoffset:0"
       id="path3247"
       sodipodi:cx="911.23383"
       sodipodi:cy="114.99501"
       sodipodi:rx="23.512438"
       sodipodi:ry="22.32836"
       d="m 934.74626,114.99501 c 0,12.33161 -10.52687,22.32836 -23.51243,22.32836 -12.98557,0 -23.51244,-9.99675 -23.51244,-22.32836 0,-12.33161 10.52687,-22.328359 23.51244,-22.328359 12.98556,0 23.51243,9.996749 23.51243,22.328359 z"
       inkscape:export-filename="/home/lucas/NetBeansProjects/SMRAquiraz/src/imagens/seAQZ.png"
       inkscape:export-xdpi="90"
       inkscape:export-ydpi="90" />
    <rect
       transform="scale(1,-1)"
       inkscape:export-ydpi="90"
       inkscape:export-xdpi="90"
       ry="0"
       rx="2.741298"
       y="-574.66461"
       x="239.79759"
       height="136.03345"
       width="7.9161353"
       id="rect3249"
       style="fill:#ff0000;fill-opacity:1;stroke:#000000;stroke-width:1.10936725;stroke-miterlimit:4;stroke-opacity:0;stroke-dasharray:none"
       inkscape:export-filename="/home/lucas/NetBeansProjects/SMRAquiraz/src/imagens/seAQZ.png" />
    <rect
       style="fill:#2e7fff;fill-opacity:1;stroke:#000000;stroke-width:0.62311316;stroke-miterlimit:4;stroke-opacity:0;stroke-dasharray:none"
       id="rect3251"
       width="12.366675"
       height="4.7094727"
       x="325.21152"
       y="467.19312"
       rx="0.26528689"
       ry="0"
       inkscape:export-xdpi="90"
       inkscape:export-ydpi="90"
       inkscape:export-filename="/home/lucas/NetBeansProjects/SMRAquiraz/src/imagens/seAQZ.png" />
    <rect
       inkscape:export-ydpi="90"
       inkscape:export-xdpi="90"
       ry="0"
       rx="0.26528689"
       y="541.68677"
       x="324.38705"
       height="4.7094727"
       width="13.191121"
       id="rect3253"
       style="fill:#2e7fff;fill-opacity:1;stroke:#000000;stroke-width:0.64354855;stroke-miterlimit:4;stroke-opacity:0;stroke-dasharray:none"
       inkscape:export-filename="/home/lucas/NetBeansProjects/SMRAquiraz/src/imagens/seAQZ.png" />
    <rect
       inkscape:export-ydpi="90"
       inkscape:export-xdpi="90"
       ry="0"
       rx="0.26528689"
       y="467.19312"
       x="246.88927"
       height="4.7094727"
       width="9.893342"
       id="rect3255"
       style="fill:#ff0000;fill-opacity:1;stroke:#000000;stroke-width:0.55732942;stroke-miterlimit:4;stroke-opacity:0;stroke-dasharray:none"
       inkscape:export-filename="/home/lucas/NetBeansProjects/SMRAquiraz/src/imagens/seAQZ.png" />
    <rect
       style="fill:#ff0000;fill-opacity:1;stroke:#000000;stroke-width:0.60198456;stroke-miterlimit:4;stroke-opacity:0;stroke-dasharray:none"
       id="rect3257"
       width="11.542232"
       height="4.7094727"
       x="246.88927"
       y="541.68677"
       rx="0.26528689"
       ry="0"
       inkscape:export-xdpi="90"
       inkscape:export-ydpi="90"
       inkscape:export-filename="/home/lucas/NetBeansProjects/SMRAquiraz/src/imagens/seAQZ.png" />
    <path
       inkscape:export-ydpi="90"
       inkscape:export-xdpi="90"
       inkscape:export-filename="/home/lucas/NetBeansProjects/SMRAquiraz/src/imagens/seAQZ.png"
       sodipodi:type="arc"
       style="fill:none;stroke:#ff0000;stroke-width:3.23099995;stroke-linecap:round;stroke-linejoin:round;stroke-miterlimit:4;stroke-opacity:1;stroke-dasharray:none;stroke-dashoffset:0"
       id="path3479"
       sodipodi:cx="911.23383"
       sodipodi:cy="114.99501"
       sodipodi:rx="23.512438"
       sodipodi:ry="22.32836"
       d="m 934.74626,114.99501 c 0,12.33161 -10.52687,22.32836 -23.51243,22.32836 -12.98557,0 -23.51244,-9.99675 -23.51244,-22.32836 0,-12.33161 10.52687,-22.328359 23.51244,-22.328359 12.98556,0 23.51243,9.996749 23.51243,22.328359 z"
       transform="matrix(0.82444509,0,0,0.82444509,-474.11465,374.56644)" />
    <path
       inkscape:export-ydpi="90"
       inkscape:export-xdpi="90"
       inkscape:export-filename="/home/lucas/NetBeansProjects/SMRAquiraz/src/imagens/seAQZ.png"
       sodipodi:type="arc"
       style="fill:none;stroke:#2e7fff;stroke-width:3.23099995;stroke-linecap:round;stroke-linejoin:round;stroke-miterlimit:4;stroke-opacity:1;stroke-dasharray:none;stroke-dashoffset:0"
       id="path3481"
       sodipodi:cx="911.23383"
       sodipodi:cy="114.99501"
       sodipodi:rx="23.512438"
       sodipodi:ry="22.32836"
       d="m 934.74626,114.99501 c 0,12.33161 -10.52687,22.32836 -23.51243,22.32836 -12.98557,0 -23.51244,-9.99675 -23.51244,-22.32836 0,-12.33161 10.52687,-22.328359 23.51244,-22.328359 12.98556,0 23.51243,9.996749 23.51243,22.328359 z"
       transform="matrix(0.82444509,0,0,0.82444509,-445.83735,374.88229)" />
    <path
       inkscape:export-ydpi="90"
       inkscape:export-xdpi="90"
       inkscape:export-filename="/home/lucas/NetBeansProjects/SMRAquiraz/src/imagens/seAQZ.png"
       d="m 934.74626,114.99501 c 0,12.33161 -10.52687,22.32836 -23.51243,22.32836 -12.98557,0 -23.51244,-9.99675 -23.51244,-22.32836 0,-12.33161 10.52687,-22.328359 23.51244,-22.328359 12.98556,0 23.51243,9.996749 23.51243,22.328359 z"
       sodipodi:ry="22.32836"
       sodipodi:rx="23.512438"
       sodipodi:cy="114.99501"
       sodipodi:cx="911.23383"
       id="path3483"
       style="fill:none;stroke:#ff0000;stroke-width:3.23099995;stroke-linecap:round;stroke-linejoin:round;stroke-miterlimit:4;stroke-opacity:1;stroke-dasharray:none;stroke-dashoffset:0"
       sodipodi:type="arc"
       transform="matrix(0.82444509,0,0,0.82444509,-474.11465,448.76652)" />
    <path
       inkscape:export-ydpi="90"
       inkscape:export-xdpi="90"
       inkscape:export-filename="/home/lucas/NetBeansProjects/SMRAquiraz/src/imagens/seAQZ.png"
       d="m 934.74626,114.99501 c 0,12.33161 -10.52687,22.32836 -23.51243,22.32836 -12.98557,0 -23.51244,-9.99675 -23.51244,-22.32836 0,-12.33161 10.52687,-22.328359 23.51244,-22.328359 12.98556,0 23.51243,9.996749 23.51243,22.328359 z"
       sodipodi:ry="22.32836"
       sodipodi:rx="23.512438"
       sodipodi:cy="114.99501"
       sodipodi:cx="911.23383"
       id="path3485"
       style="fill:none;stroke:#2e7fff;stroke-width:3.23099995;stroke-linecap:round;stroke-linejoin:round;stroke-miterlimit:4;stroke-opacity:1;stroke-dasharray:none;stroke-dashoffset:0"
       sodipodi:type="arc"
       transform="matrix(0.82444509,0,0,0.82444509,-445.83735,449.08236)" />
    <rect
       inkscape:export-filename="/home/lucas/NetBeansProjects/SMRAquiraz/src/imagens/seAQZ.png"
       style="fill:#ff0000;fill-opacity:1;stroke:#000000;stroke-width:1.10936725;stroke-miterlimit:4;stroke-opacity:0;stroke-dasharray:none"
       id="rect3487"
       width="7.9161353"
       height="136.03345"
       x="239.79759"
       y="-574.66461"
       rx="2.741298"
       ry="0"
       inkscape:export-xdpi="90"
       inkscape:export-ydpi="90"
       transform="scale(1,-1)" />
    <rect
       inkscape:export-filename="/home/lucas/NetBeansProjects/SMRAquiraz/src/imagens/seAQZ.png"
       inkscape:export-ydpi="90"
       inkscape:export-xdpi="90"
       ry="0"
       rx="0.26528689"
       y="467.19312"
       x="325.21152"
       height="4.7094727"
       width="12.366675"
       id="rect3879"
       style="fill:#2e7fff;fill-opacity:1;stroke:#000000;stroke-width:0.62311316;stroke-miterlimit:4;stroke-opacity:0;stroke-dasharray:none" />
    <rect
       inkscape:export-filename="/home/lucas/NetBeansProjects/SMRAquiraz/src/imagens/seAQZ.png"
       style="fill:#2e7fff;fill-opacity:1;stroke:#000000;stroke-width:0.64354855;stroke-miterlimit:4;stroke-opacity:0;stroke-dasharray:none"
       id="rect3881"
       width="13.191121"
       height="4.7094727"
       x="324.38705"
       y="541.68677"
       rx="0.26528689"
       ry="0"
       inkscape:export-xdpi="90"
       inkscape:export-ydpi="90" />
    <rect
       inkscape:export-filename="/home/lucas/NetBeansProjects/SMRAquiraz/src/imagens/seAQZ.png"
       style="fill:#ff0000;fill-opacity:1;stroke:#000000;stroke-width:0.55732942;stroke-miterlimit:4;stroke-opacity:0;stroke-dasharray:none"
       id="rect3883"
       width="9.893342"
       height="4.7094727"
       x="246.88927"
       y="467.19312"
       rx="0.26528689"
       ry="0"
       inkscape:export-xdpi="90"
       inkscape:export-ydpi="90" />
    <rect
       inkscape:export-filename="/home/lucas/NetBeansProjects/SMRAquiraz/src/imagens/seAQZ.png"
       inkscape:export-ydpi="90"
       inkscape:export-xdpi="90"
       ry="0"
       rx="0.26528689"
       y="541.68677"
       x="246.88927"
       height="4.7094727"
       width="11.542232"
       id="rect3885"
       style="fill:#ff0000;fill-opacity:1;stroke:#000000;stroke-width:0.60198456;stroke-miterlimit:4;stroke-opacity:0;stroke-dasharray:none" />
    <path
       transform="matrix(0.82444509,0,0,0.82444509,-474.11465,374.56644)"
       d="m 934.74626,114.99501 c 0,12.33161 -10.52687,22.32836 -23.51243,22.32836 -12.98557,0 -23.51244,-9.99675 -23.51244,-22.32836 0,-12.33161 10.52687,-22.328359 23.51244,-22.328359 12.98556,0 23.51243,9.996749 23.51243,22.328359 z"
       sodipodi:ry="22.32836"
       sodipodi:rx="23.512438"
       sodipodi:cy="114.99501"
       sodipodi:cx="911.23383"
       id="path4084"
       style="fill:none;stroke:#ff0000;stroke-width:3.23099995;stroke-linecap:round;stroke-linejoin:round;stroke-miterlimit:4;stroke-opacity:1;stroke-dasharray:none;stroke-dashoffset:0"
       sodipodi:type="arc"
       inkscape:export-filename="/home/lucas/NetBeansProjects/SMRAquiraz/src/imagens/seAQZ.png"
       inkscape:export-xdpi="90"
       inkscape:export-ydpi="90" />
    <path
       transform="matrix(0.82444509,0,0,0.82444509,-445.83735,374.88229)"
       d="m 934.74626,114.99501 c 0,12.33161 -10.52687,22.32836 -23.51243,22.32836 -12.98557,0 -23.51244,-9.99675 -23.51244,-22.32836 0,-12.33161 10.52687,-22.328359 23.51244,-22.328359 12.98556,0 23.51243,9.996749 23.51243,22.328359 z"
       sodipodi:ry="22.32836"
       sodipodi:rx="23.512438"
       sodipodi:cy="114.99501"
       sodipodi:cx="911.23383"
       id="path4086"
       style="fill:none;stroke:#2e7fff;stroke-width:3.23099995;stroke-linecap:round;stroke-linejoin:round;stroke-miterlimit:4;stroke-opacity:1;stroke-dasharray:none;stroke-dashoffset:0"
       sodipodi:type="arc"
       inkscape:export-filename="/home/lucas/NetBeansProjects/SMRAquiraz/src/imagens/seAQZ.png"
       inkscape:export-xdpi="90"
       inkscape:export-ydpi="90" />
    <path
       transform="matrix(0.82444509,0,0,0.82444509,-474.11465,448.76652)"
       sodipodi:type="arc"
       style="fill:none;stroke:#ff0000;stroke-width:3.23099995;stroke-linecap:round;stroke-linejoin:round;stroke-miterlimit:4;stroke-opacity:1;stroke-dasharray:none;stroke-dashoffset:0"
       id="path4088"
       sodipodi:cx="911.23383"
       sodipodi:cy="114.99501"
       sodipodi:rx="23.512438"
       sodipodi:ry="22.32836"
       d="m 934.74626,114.99501 c 0,12.33161 -10.52687,22.32836 -23.51243,22.32836 -12.98557,0 -23.51244,-9.99675 -23.51244,-22.32836 0,-12.33161 10.52687,-22.328359 23.51244,-22.328359 12.98556,0 23.51243,9.996749 23.51243,22.328359 z"
       inkscape:export-filename="/home/lucas/NetBeansProjects/SMRAquiraz/src/imagens/seAQZ.png"
       inkscape:export-xdpi="90"
       inkscape:export-ydpi="90" />
    <path
       transform="matrix(0.82444509,0,0,0.82444509,-445.83735,449.08236)"
       sodipodi:type="arc"
       style="fill:none;stroke:#2e7fff;stroke-width:3.23099995;stroke-linecap:round;stroke-linejoin:round;stroke-miterlimit:4;stroke-opacity:1;stroke-dasharray:none;stroke-dashoffset:0"
       id="path4090"
       sodipodi:cx="911.23383"
       sodipodi:cy="114.99501"
       sodipodi:rx="23.512438"
       sodipodi:ry="22.32836"
       d="m 934.74626,114.99501 c 0,12.33161 -10.52687,22.32836 -23.51243,22.32836 -12.98557,0 -23.51244,-9.99675 -23.51244,-22.32836 0,-12.33161 10.52687,-22.328359 23.51244,-22.328359 12.98556,0 23.51243,9.996749 23.51243,22.328359 z"
       inkscape:export-filename="/home/lucas/NetBeansProjects/SMRAquiraz/src/imagens/seAQZ.png"
       inkscape:export-xdpi="90"
       inkscape:export-ydpi="90" />
    <rect
       transform="scale(1,-1)"
       inkscape:export-ydpi="90"
       inkscape:export-xdpi="90"
       ry="0"
       rx="2.741298"
       y="-574.66461"
       x="239.79759"
       height="136.03345"
       width="7.9161353"
       id="rect4092"
       style="fill:#ff0000;fill-opacity:1;stroke:#000000;stroke-width:1.10936725;stroke-miterlimit:4;stroke-opacity:0;stroke-dasharray:none"
       inkscape:export-filename="/home/lucas/NetBeansProjects/SMRAquiraz/src/imagens/seAQZ.png" />
    <rect
       style="fill:#2e7fff;fill-opacity:1;stroke:#000000;stroke-width:0.62311316;stroke-miterlimit:4;stroke-opacity:0;stroke-dasharray:none"
       id="rect4484"
       width="12.366675"
       height="4.7094727"
       x="325.21152"
       y="467.19312"
       rx="0.26528689"
       ry="0"
       inkscape:export-xdpi="90"
       inkscape:export-ydpi="90"
       inkscape:export-filename="/home/lucas/NetBeansProjects/SMRAquiraz/src/imagens/seAQZ.png" />
    <rect
       inkscape:export-ydpi="90"
       inkscape:export-xdpi="90"
       ry="0"
       rx="0.26528689"
       y="541.68677"
       x="324.38705"
       height="4.7094727"
       width="13.191121"
       id="rect4486"
       style="fill:#2e7fff;fill-opacity:1;stroke:#000000;stroke-width:0.64354855;stroke-miterlimit:4;stroke-opacity:0;stroke-dasharray:none"
       inkscape:export-filename="/home/lucas/NetBeansProjects/SMRAquiraz/src/imagens/seAQZ.png" />
    <rect
       inkscape:export-ydpi="90"
       inkscape:export-xdpi="90"
       ry="0"
       rx="0.26528689"
       y="467.19312"
       x="246.88927"
       height="4.7094727"
       width="9.893342"
       id="rect4488"
       style="fill:#ff0000;fill-opacity:1;stroke:#000000;stroke-width:0.55732942;stroke-miterlimit:4;stroke-opacity:0;stroke-dasharray:none"
       inkscape:export-filename="/home/lucas/NetBeansProjects/SMRAquiraz/src/imagens/seAQZ.png" />
    <rect
       style="fill:#ff0000;fill-opacity:1;stroke:#000000;stroke-width:0.60198456;stroke-miterlimit:4;stroke-opacity:0;stroke-dasharray:none"
       id="rect4490"
       width="11.542232"
       height="4.7094727"
       x="246.88927"
       y="541.68677"
       rx="0.26528689"
       ry="0"
       inkscape:export-xdpi="90"
       inkscape:export-ydpi="90"
       inkscape:export-filename="/home/lucas/NetBeansProjects/SMRAquiraz/src/imagens/seAQZ.png" />
    <path
       inkscape:export-ydpi="90"
       inkscape:export-xdpi="90"
       inkscape:export-filename="/home/lucas/NetBeansProjects/SMRAquiraz/src/imagens/seAQZ.png"
       sodipodi:type="arc"
       style="fill:none;stroke:#ff0000;stroke-width:3.23099995;stroke-linecap:round;stroke-linejoin:round;stroke-miterlimit:4;stroke-opacity:1;stroke-dasharray:none;stroke-dashoffset:0"
       id="path4672"
       sodipodi:cx="911.23383"
       sodipodi:cy="114.99501"
       sodipodi:rx="23.512438"
       sodipodi:ry="22.32836"
       d="m 934.74626,114.99501 c 0,12.33161 -10.52687,22.32836 -23.51243,22.32836 -12.98557,0 -23.51244,-9.99675 -23.51244,-22.32836 0,-12.33161 10.52687,-22.328359 23.51244,-22.328359 12.98556,0 23.51243,9.996749 23.51243,22.328359 z"
       transform="matrix(0.82444509,0,0,0.82444509,-474.11465,374.56644)" />
    <path
       inkscape:export-ydpi="90"
       inkscape:export-xdpi="90"
       inkscape:export-filename="/home/lucas/NetBeansProjects/SMRAquiraz/src/imagens/seAQZ.png"
       sodipodi:type="arc"
       style="fill:none;stroke:#2e7fff;stroke-width:3.23099995;stroke-linecap:round;stroke-linejoin:round;stroke-miterlimit:4;stroke-opacity:1;stroke-dasharray:none;stroke-dashoffset:0"
       id="path4674"
       sodipodi:cx="911.23383"
       sodipodi:cy="114.99501"
       sodipodi:rx="23.512438"
       sodipodi:ry="22.32836"
       d="m 934.74626,114.99501 c 0,12.33161 -10.52687,22.32836 -23.51243,22.32836 -12.98557,0 -23.51244,-9.99675 -23.51244,-22.32836 0,-12.33161 10.52687,-22.328359 23.51244,-22.328359 12.98556,0 23.51243,9.996749 23.51243,22.328359 z"
       transform="matrix(0.82444509,0,0,0.82444509,-445.83735,374.88229)" />
    <path
       inkscape:export-ydpi="90"
       inkscape:export-xdpi="90"
       inkscape:export-filename="/home/lucas/NetBeansProjects/SMRAquiraz/src/imagens/seAQZ.png"
       d="m 934.74626,114.99501 c 0,12.33161 -10.52687,22.32836 -23.51243,22.32836 -12.98557,0 -23.51244,-9.99675 -23.51244,-22.32836 0,-12.33161 10.52687,-22.328359 23.51244,-22.328359 12.98556,0 23.51243,9.996749 23.51243,22.328359 z"
       sodipodi:ry="22.32836"
       sodipodi:rx="23.512438"
       sodipodi:cy="114.99501"
       sodipodi:cx="911.23383"
       id="path4676"
       style="fill:none;stroke:#ff0000;stroke-width:3.23099995;stroke-linecap:round;stroke-linejoin:round;stroke-miterlimit:4;stroke-opacity:1;stroke-dasharray:none;stroke-dashoffset:0"
       sodipodi:type="arc"
       transform="matrix(0.82444509,0,0,0.82444509,-474.11465,448.76652)" />
    <path
       inkscape:export-ydpi="90"
       inkscape:export-xdpi="90"
       inkscape:export-filename="/home/lucas/NetBeansProjects/SMRAquiraz/src/imagens/seAQZ.png"
       d="m 934.74626,114.99501 c 0,12.33161 -10.52687,22.32836 -23.51243,22.32836 -12.98557,0 -23.51244,-9.99675 -23.51244,-22.32836 0,-12.33161 10.52687,-22.328359 23.51244,-22.328359 12.98556,0 23.51243,9.996749 23.51243,22.328359 z"
       sodipodi:ry="22.32836"
       sodipodi:rx="23.512438"
       sodipodi:cy="114.99501"
       sodipodi:cx="911.23383"
       id="path4678"
       style="fill:none;stroke:#2e7fff;stroke-width:3.23099995;stroke-linecap:round;stroke-linejoin:round;stroke-miterlimit:4;stroke-opacity:1;stroke-dasharray:none;stroke-dashoffset:0"
       sodipodi:type="arc"
       transform="matrix(0.82444509,0,0,0.82444509,-445.83735,449.08236)" />
    <rect
       inkscape:export-filename="/home/lucas/NetBeansProjects/SMRAquiraz/src/imagens/seAQZ.png"
       style="fill:#ff0000;fill-opacity:1;stroke:#000000;stroke-width:1.10936725;stroke-miterlimit:4;stroke-opacity:0;stroke-dasharray:none"
       id="rect4680"
       width="7.9161353"
       height="136.03345"
       x="239.79759"
       y="-574.66461"
       rx="2.741298"
       ry="0"
       inkscape:export-xdpi="90"
       inkscape:export-ydpi="90"
       transform="scale(1,-1)" />
    <rect
       inkscape:export-filename="/home/lucas/NetBeansProjects/SMRAquiraz/src/imagens/seAQZ.png"
       inkscape:export-ydpi="90"
       inkscape:export-xdpi="90"
       ry="0"
       rx="0.26528689"
       y="467.19312"
       x="325.21152"
       height="4.7094727"
       width="12.366675"
       id="rect5072"
       style="fill:#2e7fff;fill-opacity:1;stroke:#000000;stroke-width:0.62311316;stroke-miterlimit:4;stroke-opacity:0;stroke-dasharray:none" />
    <rect
       inkscape:export-filename="/home/lucas/NetBeansProjects/SMRAquiraz/src/imagens/seAQZ.png"
       style="fill:#2e7fff;fill-opacity:1;stroke:#000000;stroke-width:0.64354855;stroke-miterlimit:4;stroke-opacity:0;stroke-dasharray:none"
       id="rect5074"
       width="13.191121"
       height="4.7094727"
       x="324.38705"
       y="541.68677"
       rx="0.26528689"
       ry="0"
       inkscape:export-xdpi="90"
       inkscape:export-ydpi="90" />
    <rect
       inkscape:export-filename="/home/lucas/NetBeansProjects/SMRAquiraz/src/imagens/seAQZ.png"
       style="fill:#ff0000;fill-opacity:1;stroke:#000000;stroke-width:0.55732942;stroke-miterlimit:4;stroke-opacity:0;stroke-dasharray:none"
       id="rect5076"
       width="9.893342"
       height="4.7094727"
       x="246.88927"
       y="467.19312"
       rx="0.26528689"
       ry="0"
       inkscape:export-xdpi="90"
       inkscape:export-ydpi="90" />
    <rect
       inkscape:export-filename="/home/lucas/NetBeansProjects/SMRAquiraz/src/imagens/seAQZ.png"
       inkscape:export-ydpi="90"
       inkscape:export-xdpi="90"
       ry="0"
       rx="0.26528689"
       y="541.68677"
       x="246.88927"
       height="4.7094727"
       width="11.542232"
       id="rect5078"
       style="fill:#ff0000;fill-opacity:1;stroke:#000000;stroke-width:0.60198456;stroke-miterlimit:4;stroke-opacity:0;stroke-dasharray:none" />
    <path
       transform="matrix(0.82444509,0,0,0.82444509,-474.11465,374.56644)"
       d="m 934.74626,114.99501 c 0,12.33161 -10.52687,22.32836 -23.51243,22.32836 -12.98557,0 -23.51244,-9.99675 -23.51244,-22.32836 0,-12.33161 10.52687,-22.328359 23.51244,-22.328359 12.98556,0 23.51243,9.996749 23.51243,22.328359 z"
       sodipodi:ry="22.32836"
       sodipodi:rx="23.512438"
       sodipodi:cy="114.99501"
       sodipodi:cx="911.23383"
       id="path6656"
       style="fill:none;stroke:#ff0000;stroke-width:3.23099995;stroke-linecap:round;stroke-linejoin:round;stroke-miterlimit:4;stroke-opacity:1;stroke-dasharray:none;stroke-dashoffset:0"
       sodipodi:type="arc"
       inkscape:export-filename="/home/lucas/NetBeansProjects/SMRAquiraz/src/imagens/seAQZ.png"
       inkscape:export-xdpi="90"
       inkscape:export-ydpi="90" />
    <path
       transform="matrix(0.82444509,0,0,0.82444509,-445.83735,374.88229)"
       d="m 934.74626,114.99501 c 0,12.33161 -10.52687,22.32836 -23.51243,22.32836 -12.98557,0 -23.51244,-9.99675 -23.51244,-22.32836 0,-12.33161 10.52687,-22.328359 23.51244,-22.328359 12.98556,0 23.51243,9.996749 23.51243,22.328359 z"
       sodipodi:ry="22.32836"
       sodipodi:rx="23.512438"
       sodipodi:cy="114.99501"
       sodipodi:cx="911.23383"
       id="path6658"
       style="fill:none;stroke:#2e7fff;stroke-width:3.23099995;stroke-linecap:round;stroke-linejoin:round;stroke-miterlimit:4;stroke-opacity:1;stroke-dasharray:none;stroke-dashoffset:0"
       sodipodi:type="arc"
       inkscape:export-filename="/home/lucas/NetBeansProjects/SMRAquiraz/src/imagens/seAQZ.png"
       inkscape:export-xdpi="90"
       inkscape:export-ydpi="90" />
    <path
       transform="matrix(0.82444509,0,0,0.82444509,-474.11465,448.76652)"
       sodipodi:type="arc"
       style="fill:none;stroke:#ff0000;stroke-width:3.23099995;stroke-linecap:round;stroke-linejoin:round;stroke-miterlimit:4;stroke-opacity:1;stroke-dasharray:none;stroke-dashoffset:0"
       id="path6660"
       sodipodi:cx="911.23383"
       sodipodi:cy="114.99501"
       sodipodi:rx="23.512438"
       sodipodi:ry="22.32836"
       d="m 934.74626,114.99501 c 0,12.33161 -10.52687,22.32836 -23.51243,22.32836 -12.98557,0 -23.51244,-9.99675 -23.51244,-22.32836 0,-12.33161 10.52687,-22.328359 23.51244,-22.328359 12.98556,0 23.51243,9.996749 23.51243,22.328359 z"
       inkscape:export-filename="/home/lucas/NetBeansProjects/SMRAquiraz/src/imagens/seAQZ.png"
       inkscape:export-xdpi="90"
       inkscape:export-ydpi="90" />
    <path
       transform="matrix(0.82444509,0,0,0.82444509,-445.83735,449.08236)"
       sodipodi:type="arc"
       style="fill:none;stroke:#2e7fff;stroke-width:3.23099995;stroke-linecap:round;stroke-linejoin:round;stroke-miterlimit:4;stroke-opacity:1;stroke-dasharray:none;stroke-dashoffset:0"
       id="path6662"
       sodipodi:cx="911.23383"
       sodipodi:cy="114.99501"
       sodipodi:rx="23.512438"
       sodipodi:ry="22.32836"
       d="m 934.74626,114.99501 c 0,12.33161 -10.52687,22.32836 -23.51243,22.32836 -12.98557,0 -23.51244,-9.99675 -23.51244,-22.32836 0,-12.33161 10.52687,-22.328359 23.51244,-22.328359 12.98556,0 23.51243,9.996749 23.51243,22.328359 z"
       inkscape:export-filename="/home/lucas/NetBeansProjects/SMRAquiraz/src/imagens/seAQZ.png"
       inkscape:export-xdpi="90"
       inkscape:export-ydpi="90" />
    <rect
       transform="scale(1,-1)"
       inkscape:export-ydpi="90"
       inkscape:export-xdpi="90"
       ry="0"
       rx="2.741298"
       y="-574.66461"
       x="239.79759"
       height="136.03345"
       width="7.9161353"
       id="rect6664"
       style="fill:#ff0000;fill-opacity:1;stroke:#000000;stroke-width:1.10936725;stroke-miterlimit:4;stroke-opacity:0;stroke-dasharray:none"
       inkscape:export-filename="/home/lucas/NetBeansProjects/SMRAquiraz/src/imagens/seAQZ.png" />
    <rect
       style="fill:#2e7fff;fill-opacity:1;stroke:#000000;stroke-width:0.62311316;stroke-miterlimit:4;stroke-opacity:0;stroke-dasharray:none"
       id="rect7056"
       width="12.366675"
       height="4.7094727"
       x="325.21152"
       y="467.19312"
       rx="0.26528689"
       ry="0"
       inkscape:export-xdpi="90"
       inkscape:export-ydpi="90"
       inkscape:export-filename="/home/lucas/NetBeansProjects/SMRAquiraz/src/imagens/seAQZ.png" />
    <rect
       inkscape:export-ydpi="90"
       inkscape:export-xdpi="90"
       ry="0"
       rx="0.26528689"
       y="541.68677"
       x="324.38705"
       height="4.7094727"
       width="13.191121"
       id="rect7058"
       style="fill:#2e7fff;fill-opacity:1;stroke:#000000;stroke-width:0.64354855;stroke-miterlimit:4;stroke-opacity:0;stroke-dasharray:none"
       inkscape:export-filename="/home/lucas/NetBeansProjects/SMRAquiraz/src/imagens/seAQZ.png" />
    <rect
       inkscape:export-ydpi="90"
       inkscape:export-xdpi="90"
       ry="0"
       rx="0.26528689"
       y="467.19312"
       x="246.88927"
       height="4.7094727"
       width="9.893342"
       id="rect7060"
       style="fill:#ff0000;fill-opacity:1;stroke:#000000;stroke-width:0.55732942;stroke-miterlimit:4;stroke-opacity:0;stroke-dasharray:none"
       inkscape:export-filename="/home/lucas/NetBeansProjects/SMRAquiraz/src/imagens/seAQZ.png" />
    <rect
       style="fill:#ff0000;fill-opacity:1;stroke:#000000;stroke-width:0.60198456;stroke-miterlimit:4;stroke-opacity:0;stroke-dasharray:none"
       id="rect7062"
       width="11.542232"
       height="4.7094727"
       x="246.88927"
       y="541.68677"
       rx="0.26528689"
       ry="0"
       inkscape:export-xdpi="90"
       inkscape:export-ydpi="90"
       inkscape:export-filename="/home/lucas/NetBeansProjects/SMRAquiraz/src/imagens/seAQZ.png" />
    <path
       transform="matrix(0.82444509,0,0,0.82444509,-474.11465,374.56644)"
       d="m 934.74626,114.99501 c 0,12.33161 -10.52687,22.32836 -23.51243,22.32836 -12.98557,0 -23.51244,-9.99675 -23.51244,-22.32836 0,-12.33161 10.52687,-22.328359 23.51244,-22.328359 12.98556,0 23.51243,9.996749 23.51243,22.328359 z"
       sodipodi:ry="22.32836"
       sodipodi:rx="23.512438"
       sodipodi:cy="114.99501"
       sodipodi:cx="911.23383"
       id="path5260"
       style="fill:none;stroke:#ff0000;stroke-width:3.23099995;stroke-linecap:round;stroke-linejoin:round;stroke-miterlimit:4;stroke-opacity:1;stroke-dasharray:none;stroke-dashoffset:0"
       sodipodi:type="arc"
       inkscape:export-filename="/home/lucas/NetBeansProjects/SMRAquiraz/src/imagens/seAQZ.png"
       inkscape:export-xdpi="90"
       inkscape:export-ydpi="90" />
    <path
       transform="matrix(0.82444509,0,0,0.82444509,-445.83735,374.88229)"
       d="m 934.74626,114.99501 c 0,12.33161 -10.52687,22.32836 -23.51243,22.32836 -12.98557,0 -23.51244,-9.99675 -23.51244,-22.32836 0,-12.33161 10.52687,-22.328359 23.51244,-22.328359 12.98556,0 23.51243,9.996749 23.51243,22.328359 z"
       sodipodi:ry="22.32836"
       sodipodi:rx="23.512438"
       sodipodi:cy="114.99501"
       sodipodi:cx="911.23383"
       id="path5262"
       style="fill:none;stroke:#2e7fff;stroke-width:3.23099995;stroke-linecap:round;stroke-linejoin:round;stroke-miterlimit:4;stroke-opacity:1;stroke-dasharray:none;stroke-dashoffset:0"
       sodipodi:type="arc"
       inkscape:export-filename="/home/lucas/NetBeansProjects/SMRAquiraz/src/imagens/seAQZ.png"
       inkscape:export-xdpi="90"
       inkscape:export-ydpi="90" />
    <path
       transform="matrix(0.82444509,0,0,0.82444509,-474.11465,448.76652)"
       sodipodi:type="arc"
       style="fill:none;stroke:#ff0000;stroke-width:3.23099995;stroke-linecap:round;stroke-linejoin:round;stroke-miterlimit:4;stroke-opacity:1;stroke-dasharray:none;stroke-dashoffset:0"
       id="path5264"
       sodipodi:cx="911.23383"
       sodipodi:cy="114.99501"
       sodipodi:rx="23.512438"
       sodipodi:ry="22.32836"
       d="m 934.74626,114.99501 c 0,12.33161 -10.52687,22.32836 -23.51243,22.32836 -12.98557,0 -23.51244,-9.99675 -23.51244,-22.32836 0,-12.33161 10.52687,-22.328359 23.51244,-22.328359 12.98556,0 23.51243,9.996749 23.51243,22.328359 z"
       inkscape:export-filename="/home/lucas/NetBeansProjects/SMRAquiraz/src/imagens/seAQZ.png"
       inkscape:export-xdpi="90"
       inkscape:export-ydpi="90" />
    <path
       transform="matrix(0.82444509,0,0,0.82444509,-445.83735,449.08236)"
       sodipodi:type="arc"
       style="fill:none;stroke:#2e7fff;stroke-width:3.23099995;stroke-linecap:round;stroke-linejoin:round;stroke-miterlimit:4;stroke-opacity:1;stroke-dasharray:none;stroke-dashoffset:0"
       id="path5266"
       sodipodi:cx="911.23383"
       sodipodi:cy="114.99501"
       sodipodi:rx="23.512438"
       sodipodi:ry="22.32836"
       d="m 934.74626,114.99501 c 0,12.33161 -10.52687,22.32836 -23.51243,22.32836 -12.98557,0 -23.51244,-9.99675 -23.51244,-22.32836 0,-12.33161 10.52687,-22.328359 23.51244,-22.328359 12.98556,0 23.51243,9.996749 23.51243,22.328359 z"
       inkscape:export-filename="/home/lucas/NetBeansProjects/SMRAquiraz/src/imagens/seAQZ.png"
       inkscape:export-xdpi="90"
       inkscape:export-ydpi="90" />
    <rect
       transform="scale(1,-1)"
       inkscape:export-ydpi="90"
       inkscape:export-xdpi="90"
       ry="0"
       rx="2.741298"
       y="-574.66461"
       x="239.79759"
       height="136.03345"
       width="7.9161353"
       id="rect5268"
       style="fill:#ff0000;fill-opacity:1;stroke:#000000;stroke-width:1.10936725;stroke-miterlimit:4;stroke-opacity:0;stroke-dasharray:none"
       inkscape:export-filename="/home/lucas/NetBeansProjects/SMRAquiraz/src/imagens/seAQZ.png" />
    <rect
       style="fill:#2e7fff;fill-opacity:1;stroke:#000000;stroke-width:0.62311316;stroke-miterlimit:4;stroke-opacity:0;stroke-dasharray:none"
       id="rect5660"
       width="12.366675"
       height="4.7094727"
       x="325.21152"
       y="467.19312"
       rx="0.26528689"
       ry="0"
       inkscape:export-xdpi="90"
       inkscape:export-ydpi="90"
       inkscape:export-filename="/home/lucas/NetBeansProjects/SMRAquiraz/src/imagens/seAQZ.png" />
    <rect
       inkscape:export-ydpi="90"
       inkscape:export-xdpi="90"
       ry="0"
       rx="0.26528689"
       y="541.68677"
       x="324.38705"
       height="4.7094727"
       width="13.191121"
       id="rect5662"
       style="fill:#2e7fff;fill-opacity:1;stroke:#000000;stroke-width:0.64354855;stroke-miterlimit:4;stroke-opacity:0;stroke-dasharray:none"
       inkscape:export-filename="/home/lucas/NetBeansProjects/SMRAquiraz/src/imagens/seAQZ.png" />
    <rect
       inkscape:export-ydpi="90"
       inkscape:export-xdpi="90"
       ry="0"
       rx="0.26528689"
       y="467.19312"
       x="246.88927"
       height="4.7094727"
       width="9.893342"
       id="rect5664"
       style="fill:#ff0000;fill-opacity:1;stroke:#000000;stroke-width:0.55732942;stroke-miterlimit:4;stroke-opacity:0;stroke-dasharray:none"
       inkscape:export-filename="/home/lucas/NetBeansProjects/SMRAquiraz/src/imagens/seAQZ.png" />
    <rect
       style="fill:#ff0000;fill-opacity:1;stroke:#000000;stroke-width:0.60198456;stroke-miterlimit:4;stroke-opacity:0;stroke-dasharray:none"
       id="rect5666"
       width="11.542232"
       height="4.7094727"
       x="246.88927"
       y="541.68677"
       rx="0.26528689"
       ry="0"
       inkscape:export-xdpi="90"
       inkscape:export-ydpi="90"
       inkscape:export-filename="/home/lucas/NetBeansProjects/SMRAquiraz/src/imagens/seAQZ.png" />
  </g>
</svg>
